<svg width="97" height="89" viewBox="0 0 97 89" fill="none" xmlns="http://www.w3.org/2000/svg">
<g filter="url(#filter0_d)">
<path d="M93.0001 40.5749C93.0001 34.6709 85.6268 29.0757 74.3224 25.606C76.9311 14.0523 75.7717 4.86022 70.663 1.91731C69.4854 1.22699 68.1086 0.900002 66.605 0.900002V4.95105C67.4383 4.95105 68.1086 5.11455 68.6702 5.42337C71.134 6.84033 72.2028 12.2357 71.3695 19.1751C71.1702 20.8828 70.8441 22.6812 70.4456 24.516C66.8948 23.644 63.018 22.9719 58.9419 22.5359C56.4962 19.1751 53.96 16.1232 51.4056 13.4528C57.3114 7.94846 62.8549 4.93289 66.6231 4.93289V0.881836C61.6412 0.881836 55.1194 4.4424 48.5251 10.6189C41.9309 4.47873 35.4091 0.954501 30.4272 0.954501V5.00555C34.1772 5.00555 39.7389 8.00296 45.6447 13.471C43.1084 16.1414 40.5722 19.1751 38.1628 22.5359C34.0685 22.9719 30.1917 23.644 26.6409 24.5341C26.2243 22.7175 25.9163 20.9554 25.6989 19.266C24.8475 12.3265 25.8982 6.93116 28.3439 5.49604C28.8873 5.16904 29.5939 5.02372 30.4272 5.02372V0.972667C28.9054 0.972667 27.5286 1.29966 26.333 1.98997C21.2424 4.93289 20.101 14.1068 22.7279 25.6241C11.4597 29.112 4.12268 34.689 4.12268 40.5749C4.12268 46.4788 11.4959 52.074 22.8003 55.5438C20.1916 67.0974 21.3511 76.2895 26.4598 79.2324C27.6373 79.9227 29.0141 80.2497 30.5359 80.2497C35.5178 80.2497 42.0396 76.6891 48.6338 70.5126C55.2281 76.6528 61.7499 80.177 66.7318 80.177C68.2535 80.177 69.6303 79.85 70.826 79.1597C75.9166 76.2168 77.0579 67.0429 74.4311 55.5256C85.6631 52.0558 93.0001 46.4607 93.0001 40.5749ZM69.4129 28.458C68.7427 30.8015 67.9093 33.2176 66.9673 35.6337C66.2245 34.1804 65.4455 32.7271 64.5941 31.2738C63.7607 29.8205 62.8731 28.4035 61.9854 27.0229C64.5579 27.4044 67.0397 27.8767 69.4129 28.458ZM61.1158 47.805C59.7027 50.2574 58.2535 52.5827 56.7498 54.7444C54.0505 54.9806 51.315 55.1078 48.5614 55.1078C45.8258 55.1078 43.0903 54.9806 40.4091 54.7626C38.9055 52.6008 37.4381 50.2937 36.0251 47.8595C34.6482 45.4797 33.3982 43.0636 32.2569 40.6293C33.3801 38.1951 34.6482 35.7608 36.0069 33.3811C37.42 30.9286 38.8693 28.6034 40.3729 26.4416C43.0722 26.2054 45.8077 26.0783 48.5614 26.0783C51.2969 26.0783 54.0324 26.2054 56.7136 26.4234C58.2172 28.5852 59.6846 30.8923 61.0977 33.3266C62.4745 35.7063 63.7245 38.1224 64.8658 40.5567C63.7245 42.9909 62.4745 45.4252 61.1158 47.805ZM66.9673 45.4434C67.9455 47.8776 68.7789 50.3119 69.4673 52.6735C67.0941 53.2548 64.5941 53.7453 62.0035 54.1268C62.8912 52.728 63.7789 51.2929 64.6122 49.8214C65.4455 48.3681 66.2245 46.8967 66.9673 45.4434ZM48.5976 64.8266C46.9128 63.0827 45.228 61.1389 43.5613 59.0135C45.1918 59.0861 46.8585 59.1406 48.5433 59.1406C50.2462 59.1406 51.931 59.1043 53.5795 59.0135C51.9491 61.1389 50.2643 63.0827 48.5976 64.8266ZM35.1193 54.1268C32.5468 53.7453 30.0649 53.273 27.6917 52.6917C28.362 50.3482 29.1953 47.9321 30.1373 45.516C30.8801 46.9693 31.6591 48.4226 32.5105 49.8759C33.362 51.3292 34.2316 52.7462 35.1193 54.1268ZM48.507 16.3231C50.1918 18.067 51.8766 20.0108 53.5433 22.1362C51.9128 22.0636 50.2462 22.0091 48.5614 22.0091C46.8585 22.0091 45.1737 22.0454 43.5251 22.1362C45.1556 20.0108 46.8404 18.067 48.507 16.3231ZM35.1011 27.0229C34.2135 28.4217 33.3258 29.8568 32.4924 31.3283C31.6591 32.7816 30.8801 34.2349 30.1373 35.6882C29.1591 33.2539 28.3257 30.8196 27.6373 28.458C30.0105 27.8949 32.5105 27.4044 35.1011 27.0229ZM18.7061 49.7669C12.293 47.0238 8.14444 43.4269 8.14444 40.5749C8.14444 37.7228 12.293 34.1077 18.7061 31.3828C20.2641 30.7106 21.967 30.1112 23.7243 29.548C24.7569 33.1086 26.1156 36.8145 27.8004 40.6112C26.1337 44.3897 24.7931 48.0775 23.7786 51.6199C21.9851 51.0567 20.2822 50.4391 18.7061 49.7669ZM28.4525 75.7263C25.9888 74.3094 24.9199 68.914 25.7533 61.9746C25.9525 60.2669 26.2786 58.4685 26.6772 56.6337C30.2279 57.5057 34.1048 58.1778 38.1809 58.6138C40.6265 61.9746 43.1628 65.0265 45.7171 67.6969C39.8113 73.2012 34.2678 76.2168 30.4997 76.2168C29.6844 76.1987 28.996 76.0352 28.4525 75.7263ZM71.4238 61.8837C72.2753 68.8232 71.2246 74.2185 68.7789 75.6537C68.2354 75.9807 67.5289 76.126 66.6955 76.126C62.9455 76.126 57.3839 73.1286 51.4781 67.6606C54.0143 64.9901 56.5506 61.9564 58.96 58.5957C63.0542 58.1597 66.9311 57.4875 70.4818 56.5974C70.8985 58.4322 71.2246 60.1943 71.4238 61.8837ZM78.3985 49.7669C76.8405 50.4391 75.1376 51.0386 73.3804 51.6017C72.3478 48.0411 70.9891 44.3352 69.3043 40.5385C70.9709 36.76 72.3115 33.0722 73.326 29.5298C75.1195 30.093 76.8224 30.7106 78.4166 31.3828C84.8297 34.1259 88.9783 37.7228 88.9783 40.5749C88.9602 43.4269 84.8116 47.042 78.3985 49.7669Z" fill="white"/>
<path d="M48.7442 47.3321C52.3801 47.3321 55.3277 44.3845 55.3277 40.7485C55.3277 37.1126 52.3801 34.165 48.7442 34.165C45.1082 34.165 42.1606 37.1126 42.1606 40.7485C42.1606 44.3845 45.1082 47.3321 48.7442 47.3321Z" fill="white"/>
</g>
<defs>
<filter id="filter0_d" x="0.122681" y="0.881836" width="96.8774" height="87.3679" filterUnits="userSpaceOnUse" color-interpolation-filters="sRGB">
<feFlood flood-opacity="0" result="BackgroundImageFix"/>
<feColorMatrix in="SourceAlpha" type="matrix" values="0 0 0 0 0 0 0 0 0 0 0 0 0 0 0 0 0 0 127 0"/>
<feOffset dy="4"/>
<feGaussianBlur stdDeviation="2"/>
<feColorMatrix type="matrix" values="0 0 0 0 0 0 0 0 0 0 0 0 0 0 0 0 0 0 0.25 0"/>
<feBlend mode="normal" in2="BackgroundImageFix" result="effect1_dropShadow"/>
<feBlend mode="normal" in="SourceGraphic" in2="effect1_dropShadow" result="shape"/>
</filter>
</defs>
</svg>
