<svg width="89" height="81" viewBox="0 0 89 81" fill="none" xmlns="http://www.w3.org/2000/svg">
<path d="M89.0001 40.5749C89.0001 34.6709 81.6268 29.0757 70.3224 25.606C72.9311 14.0523 71.7717 4.86022 66.663 1.91731C65.4854 1.22699 64.1086 0.900002 62.605 0.900002V4.95105C63.4383 4.95105 64.1086 5.11455 64.6702 5.42337C67.134 6.84033 68.2028 12.2357 67.3695 19.1751C67.1702 20.8828 66.8441 22.6812 66.4456 24.516C62.8948 23.644 59.018 22.9719 54.9419 22.5359C52.4962 19.1751 49.96 16.1232 47.4056 13.4528C53.3114 7.94846 58.8549 4.93289 62.6231 4.93289V0.881836C57.6412 0.881836 51.1194 4.4424 44.5251 10.6189C37.9309 4.47873 31.4091 0.954501 26.4272 0.954501V5.00555C30.1772 5.00555 35.7389 8.00296 41.6447 13.471C39.1084 16.1414 36.5722 19.1751 34.1628 22.5359C30.0685 22.9719 26.1917 23.644 22.6409 24.5341C22.2243 22.7175 21.9163 20.9554 21.6989 19.266C20.8474 12.3265 21.8982 6.93116 24.3439 5.49604C24.8873 5.16905 25.5939 5.02372 26.4272 5.02372V0.972667C24.9054 0.972667 23.5286 1.29966 22.333 1.98997C17.2424 4.93288 16.101 14.1068 18.7279 25.6241C7.45968 29.112 0.122681 34.689 0.122681 40.5749C0.122681 46.4788 7.49591 52.074 18.8003 55.5438C16.1916 67.0974 17.3511 76.2895 22.4598 79.2324C23.6373 79.9227 25.0141 80.2497 26.5359 80.2497C31.5178 80.2497 38.0396 76.6891 44.6338 70.5126C51.2281 76.6528 57.7499 80.177 62.7318 80.177C64.2535 80.177 65.6304 79.85 66.826 79.1597C71.9166 76.2168 73.0579 67.0429 70.4311 55.5256C81.6631 52.0558 89.0001 46.4607 89.0001 40.5749ZM65.4129 28.458C64.7427 30.8015 63.9093 33.2176 62.9673 35.6337C62.2245 34.1804 61.4455 32.7271 60.5941 31.2738C59.7607 29.8205 58.8731 28.4035 57.9854 27.0229C60.5579 27.4044 63.0397 27.8767 65.4129 28.458ZM57.1158 47.805C55.7027 50.2574 54.2535 52.5827 52.7498 54.7444C50.0505 54.9806 47.315 55.1078 44.5614 55.1078C41.8258 55.1078 39.0903 54.9806 36.4091 54.7626C34.9055 52.6008 33.4381 50.2937 32.0251 47.8595C30.6482 45.4797 29.3982 43.0636 28.2569 40.6293C29.3801 38.1951 30.6482 35.7608 32.0069 33.3811C33.42 30.9286 34.8693 28.6034 36.3729 26.4416C39.0722 26.2054 41.8077 26.0783 44.5614 26.0783C47.2969 26.0783 50.0324 26.2054 52.7136 26.4234C54.2172 28.5852 55.6846 30.8923 57.0977 33.3266C58.4745 35.7063 59.7245 38.1224 60.8658 40.5567C59.7245 42.9909 58.4745 45.4252 57.1158 47.805ZM62.9673 45.4434C63.9455 47.8776 64.7789 50.3119 65.4673 52.6735C63.0941 53.2548 60.5941 53.7453 58.0035 54.1268C58.8912 52.728 59.7789 51.2929 60.6122 49.8214C61.4455 48.3681 62.2245 46.8967 62.9673 45.4434ZM44.5976 64.8266C42.9128 63.0827 41.228 61.1389 39.5613 59.0135C41.1918 59.0861 42.8585 59.1406 44.5433 59.1406C46.2462 59.1406 47.931 59.1043 49.5795 59.0135C47.9491 61.1389 46.2643 63.0827 44.5976 64.8266ZM31.1193 54.1268C28.5468 53.7453 26.0649 53.273 23.6917 52.6917C24.362 50.3482 25.1953 47.9321 26.1373 45.516C26.8801 46.9693 27.6591 48.4226 28.5105 49.8759C29.362 51.3292 30.2316 52.7462 31.1193 54.1268ZM44.507 16.3231C46.1918 18.067 47.8766 20.0108 49.5433 22.1362C47.9128 22.0636 46.2462 22.0091 44.5614 22.0091C42.8585 22.0091 41.1737 22.0454 39.5251 22.1362C41.1556 20.0108 42.8403 18.067 44.507 16.3231ZM31.1011 27.0229C30.2135 28.4217 29.3258 29.8568 28.4924 31.3283C27.6591 32.7816 26.8801 34.2349 26.1373 35.6882C25.1591 33.2539 24.3257 30.8196 23.6373 28.458C26.0105 27.8949 28.5105 27.4044 31.1011 27.0229ZM14.7061 49.7669C8.29303 47.0238 4.14444 43.4269 4.14444 40.5749C4.14444 37.7228 8.29303 34.1077 14.7061 31.3828C16.2641 30.7106 17.967 30.1112 19.7243 29.548C20.7569 33.1086 22.1156 36.8145 23.8004 40.6112C22.1337 44.3897 20.7931 48.0775 19.7786 51.6199C17.9851 51.0567 16.2822 50.4391 14.7061 49.7669ZM24.4525 75.7263C21.9888 74.3094 20.9199 68.914 21.7533 61.9746C21.9525 60.2669 22.2786 58.4685 22.6772 56.6337C26.2279 57.5057 30.1048 58.1778 34.1809 58.6138C36.6265 61.9746 39.1628 65.0265 41.7171 67.6969C35.8113 73.2012 30.2678 76.2168 26.4997 76.2168C25.6844 76.1987 24.996 76.0352 24.4525 75.7263ZM67.4238 61.8837C68.2753 68.8232 67.2246 74.2185 64.7789 75.6537C64.2354 75.9807 63.5289 76.126 62.6955 76.126C58.9455 76.126 53.3839 73.1286 47.4781 67.6606C50.0143 64.9901 52.5506 61.9564 54.96 58.5957C59.0542 58.1597 62.9311 57.4875 66.4818 56.5974C66.8985 58.4322 67.2246 60.1943 67.4238 61.8837ZM74.3985 49.7669C72.8405 50.4391 71.1376 51.0385 69.3804 51.6017C68.3478 48.0411 66.9891 44.3352 65.3043 40.5385C66.9709 36.76 68.3115 33.0722 69.326 29.5298C71.1195 30.093 72.8224 30.7106 74.4166 31.3828C80.8297 34.1259 84.9783 37.7228 84.9783 40.5749C84.9602 43.4269 80.8116 47.042 74.3985 49.7669Z" fill="white"/>
</svg>
